<svg width="41" height="33" viewBox="0 0 41 33" fill="none" xmlns="http://www.w3.org/2000/svg">
<path d="M33.3125 1.30243e-07H7.6875C6.67791 -0.000166608 5.67816 0.159764 4.74538 0.470656C3.81259 0.781548 2.96505 1.23731 2.25115 1.8119C1.53726 2.3865 0.971014 3.06867 0.584754 3.81945C0.198495 4.57023 -0.000206998 5.3749 1.61817e-07 6.1875V26.8125C-0.000206998 27.6251 0.198495 28.4298 0.584754 29.1806C0.971014 29.9313 1.53726 30.6135 2.25115 31.1881C2.96505 31.7627 3.81259 32.2185 4.74538 32.5293C5.67816 32.8402 6.67791 33.0002 7.6875 33H33.3125C34.3221 33.0002 35.3218 32.8402 36.2546 32.5293C37.1874 32.2185 38.035 31.7627 38.7488 31.1881C39.4627 30.6135 40.029 29.9313 40.4152 29.1806C40.8015 28.4298 41.0002 27.6251 41 26.8125V6.1875C41.0002 5.3749 40.8015 4.57023 40.4152 3.81945C40.029 3.06867 39.4627 2.3865 38.7488 1.8119C38.035 1.23731 37.1874 0.781548 36.2546 0.470656C35.3218 0.159764 34.3221 -0.000166608 33.3125 1.30243e-07V1.30243e-07ZM27.8485 17.5877L18.0258 23.8692C17.7909 23.9635 17.5301 24.0083 17.2678 23.9994C17.0056 23.9905 16.7504 23.9283 16.5262 23.8184C16.3002 23.7125 16.1118 23.5617 15.9793 23.3803C15.8467 23.1989 15.7744 22.9931 15.7692 22.7827V10.2186C15.7692 9.79465 16.0688 9.40119 16.5246 9.18161C16.7492 9.07194 17.0047 9.00988 17.2673 9.00123C17.5298 8.99257 17.7908 9.0376 18.0258 9.13212L27.8485 15.4123C28.3783 15.7892 28.6953 16.0393 28.6953 16.5C28.6953 16.9607 28.3231 17.2298 27.8485 17.5877Z" fill="#323232"/>
</svg>
