<svg width="50" height="37" viewBox="0 0 50 37" fill="none" xmlns="http://www.w3.org/2000/svg">
<path d="M16.7238 29.7024C16.7238 29.855 16.4919 29.977 16.1996 29.977C15.8669 29.9999 15.6351 29.8778 15.6351 29.7024C15.6351 29.5499 15.8669 29.4278 16.1593 29.4278C16.4617 29.4049 16.7238 29.527 16.7238 29.7024ZM13.5887 29.3592C13.5181 29.5117 13.7198 29.6872 14.0222 29.7329C14.2843 29.8092 14.5867 29.7329 14.6472 29.5804C14.7077 29.4278 14.5161 29.2524 14.2137 29.1837C13.9516 29.1303 13.6593 29.2066 13.5887 29.3592ZM18.0444 29.2295C17.752 29.2829 17.5504 29.4278 17.5806 29.6033C17.6109 29.7558 17.873 29.855 18.1754 29.8016C18.4677 29.7482 18.6694 29.6033 18.6391 29.4507C18.6089 29.3058 18.3367 29.2066 18.0444 29.2295ZM24.6774 0C10.6956 0 0 8.03201 0 18.6117C0 27.0708 7.03629 34.3096 17.0867 36.8572C18.377 37.0327 18.8306 36.4301 18.8306 35.9343C18.8306 35.4614 18.8004 32.8527 18.8004 31.2508C18.8004 31.2508 11.744 32.395 10.2621 28.9778C10.2621 28.9778 9.1129 26.7581 7.45968 26.186C7.45968 26.186 5.15121 24.9885 7.62097 25.0114C7.62097 25.0114 10.131 25.1639 11.5121 26.9793C13.7198 29.9236 17.4194 29.0769 18.8609 28.5735C19.0927 27.3531 19.748 26.5064 20.4738 26.003C14.8387 25.53 9.15323 24.9122 9.15323 17.5743C9.15323 15.4767 9.91936 14.4241 11.5323 13.0816C11.2702 12.5858 10.4133 10.5415 11.7944 7.90234C13.9012 7.40653 18.75 9.96183 18.75 9.96183C20.7661 9.53467 22.9335 9.31347 25.0806 9.31347C27.2278 9.31347 29.3952 9.53467 31.4113 9.96183C31.4113 9.96183 36.2601 7.39891 38.3669 7.90234C39.748 10.5492 38.8911 12.5858 38.629 13.0816C40.2419 14.4317 41.2298 15.4843 41.2298 17.5743C41.2298 24.9351 35.2923 25.5224 29.6573 26.003C30.5847 26.6055 31.371 27.7497 31.371 29.5422C31.371 32.1128 31.3407 35.2935 31.3407 35.919C31.3407 36.4148 31.8044 37.0174 33.0847 36.842C43.1653 34.3096 50 27.0708 50 18.6117C50 8.03201 38.6593 0 24.6774 0ZM9.79839 26.3081C9.66734 26.3843 9.69758 26.5598 9.86895 26.7047C10.0302 26.8268 10.2621 26.8801 10.3931 26.781C10.5242 26.7047 10.494 26.5293 10.3226 26.3843C10.1613 26.2623 9.92943 26.2089 9.79839 26.3081ZM8.70968 25.6902C8.63911 25.7894 8.73992 25.9114 8.94153 25.9877C9.10282 26.064 9.30444 26.0411 9.375 25.9343C9.44556 25.8351 9.34476 25.7131 9.14314 25.6368C8.94153 25.5911 8.78024 25.6139 8.70968 25.6902ZM11.9758 28.4057C11.8145 28.5049 11.875 28.7337 12.1069 28.8786C12.3387 29.0541 12.631 29.0769 12.7621 28.9549C12.8931 28.8557 12.8327 28.6269 12.631 28.482C12.4093 28.3065 12.1069 28.2836 11.9758 28.4057ZM10.8266 27.2844C10.6653 27.3607 10.6653 27.559 10.8266 27.7345C10.9879 27.9099 11.2601 27.9862 11.3911 27.9099C11.5524 27.8107 11.5524 27.6124 11.3911 27.437C11.25 27.2615 10.9879 27.1853 10.8266 27.2844Z" fill="black"/>
</svg>
