<svg width="46" height="44" viewBox="0 0 46 44" fill="none" xmlns="http://www.w3.org/2000/svg">
<path d="M0 0H46V44H0V0Z" fill="#F7DF1E"/>
<path d="M12.0954 36.7696L15.6155 34.7319C16.2947 35.8836 16.9125 36.8581 18.3943 36.8581C19.8148 36.8581 20.7105 36.3267 20.7105 34.2594V20.2003H25.0333V34.3178C25.0333 38.6004 22.4087 40.5498 18.5796 40.5498C15.1215 40.5498 13.1142 38.8368 12.0952 36.7693" fill="black"/>
<path d="M27.381 36.3265L30.9008 34.3773C31.8274 35.8246 33.0317 36.8878 35.162 36.8878C36.9533 36.8878 38.0954 36.0312 38.0954 34.8498C38.0954 33.4321 36.9221 32.9299 34.9459 32.1032L33.8654 31.6598C30.7466 30.3901 28.6778 28.7951 28.6778 25.4281C28.6778 22.3268 31.148 19.9638 35.0079 19.9638C37.756 19.9638 39.7322 20.8796 41.1525 23.2719L37.7866 25.3396C37.0453 24.0696 36.2429 23.5675 35.0077 23.5675C33.7416 23.5675 32.9388 24.3355 32.9388 25.3396C32.9388 26.58 33.7416 27.0824 35.5942 27.8503L36.6748 28.2932C40.3494 29.7997 42.4182 31.3354 42.4182 34.7908C42.4182 38.5126 39.3613 40.5503 35.2546 40.5503C31.2405 40.5503 28.6468 38.7192 27.3809 36.3267" fill="black"/>
</svg>
