<svg width="45" height="46" viewBox="0 0 45 46" fill="none" xmlns="http://www.w3.org/2000/svg">
<path d="M39.375 0H5.625C2.51813 0 0 2.57408 0 5.75V40.25C0 43.424 2.51813 46 5.625 46H39.375C42.48 46 45 43.424 45 40.25V5.75C45 2.57408 42.48 0 39.375 0ZM19.575 34.845C19.575 36.3688 18.3656 37.605 16.875 37.605H8.55C7.05937 37.605 5.85 36.3668 5.85 34.845V8.74C5.85 7.21625 7.05937 5.98 8.55 5.98H16.875C18.3656 5.98 19.575 7.21625 19.575 8.74V34.845ZM39.15 23.345C39.15 24.8668 37.9406 26.105 36.45 26.105H28.125C26.6344 26.105 25.425 24.8668 25.425 23.345V8.74C25.425 7.21625 26.6362 5.98 28.125 5.98H36.45C37.9406 5.98 39.15 7.21625 39.15 8.74V23.345Z" fill="#0079C0"/>
</svg>
