<svg width="42" height="51" viewBox="0 0 42 51" fill="none" xmlns="http://www.w3.org/2000/svg">
<mask id="mask0" mask-type="alpha" maskUnits="userSpaceOnUse" x="0" y="0" width="42" height="51">
<path d="M29.6671 50.7205C30 50.8794 30.356 50.9527 30.7131 50.9359C31.0701 50.9191 31.4205 50.8126 31.7425 50.623L40.3559 45.5507C40.7995 45.2893 41.1738 44.8799 41.4358 44.3697C41.6977 43.8595 41.8366 43.2691 41.8366 42.6666V8.27247C41.8366 7.66993 41.6977 7.07962 41.4357 6.56943C41.1738 6.05925 40.7995 5.64993 40.3559 5.38856L31.7426 0.31607C31.2559 0.0294467 30.7085 -0.0649261 30.176 0.0460141C29.6435 0.156954 29.1524 0.467721 28.7706 0.935298L12.2812 19.3465L5.09855 12.6739C4.77456 12.3729 4.37469 12.2203 3.96833 12.2424C3.56196 12.2645 3.17475 12.46 2.87386 12.795L0.570261 15.3597C-0.189348 16.2052 -0.190168 17.6677 0.568292 18.5146L6.79725 25.4695L0.568292 32.4242C-0.190168 33.2713 -0.189348 34.7336 0.570261 35.5794L2.87386 38.1438C3.17473 38.4788 3.56193 38.6744 3.9683 38.6966C4.37466 38.7187 4.77454 38.5661 5.09855 38.2651L12.2812 31.5923L28.7706 50.0035C29.0256 50.316 29.3309 50.5602 29.6671 50.7205ZM31.3838 13.8461L18.8721 25.4695L31.3838 37.0927V13.8461Z" fill="white"/>
</mask>
<g mask="url(#mask0)">
<path d="M40.3815 5.39652L31.7613 0.317006C31.2745 0.030151 30.7268 -0.0644229 30.1941 0.0463713C29.6615 0.157166 29.1701 0.46785 28.788 0.935431L0.5686 32.4243C-0.190353 33.2714 -0.189369 34.7338 0.570569 35.5795L2.87565 38.1439C3.17678 38.479 3.56423 38.6746 3.97083 38.6968C4.37743 38.7189 4.77754 38.5662 5.10181 38.2652L39.0844 6.71429C40.2245 5.65594 41.862 6.65104 41.862 8.40231V8.27983C41.862 7.67741 41.723 7.08723 41.4611 6.57716C41.1992 6.06709 40.825 5.65786 40.3815 5.39652Z" fill="#0065A9"/>
<path d="M40.3815 45.5418L31.7613 50.6213C31.2745 50.9081 30.7268 51.0027 30.1942 50.8919C29.6615 50.7811 29.1701 50.4704 28.788 50.0029L0.5686 18.514C-0.190353 17.6671 -0.189369 16.2046 0.570569 15.359L2.87565 12.7944C3.1768 12.4593 3.56426 12.2638 3.97086 12.2417C4.37746 12.2196 4.77756 12.3723 5.10181 12.6733L39.0844 44.224C40.2245 45.2824 41.862 44.2873 41.862 42.5358V42.6585C41.862 43.2609 41.723 43.8511 41.4611 44.3612C41.1992 44.8712 40.825 45.2805 40.3815 45.5418Z" fill="#007ACC"/>
<path d="M31.7344 50.6261C31.2474 50.9127 30.6997 51.0072 30.167 50.8963C29.6343 50.7854 29.1429 50.4746 28.7607 50.007C29.7256 51.1877 31.3756 50.3514 31.3756 48.6813V2.26422C31.3756 0.594067 29.7256 -0.242213 28.7607 0.938618C29.1429 0.471 29.6342 0.160236 30.167 0.0493038C30.6997 -0.0616288 31.2474 0.0327504 31.7344 0.31939L40.3531 5.39188C40.7969 5.65307 41.1713 6.06232 41.4334 6.57252C41.6955 7.08272 41.8346 7.67314 41.8346 8.27579V42.6701C41.8346 43.8999 41.2587 45.0211 40.3531 45.554L31.7344 50.6263V50.6261Z" fill="#1F9CF0"/>
</g>
</svg>
