<svg width="31" height="31" viewBox="0 0 31 31" fill="none" xmlns="http://www.w3.org/2000/svg">
<path d="M15.5 0C6.78125 0 0 6.78125 0 15.5C0 25.6719 9.20312 30.0312 10.6562 30.0312C11.625 30.0312 11.625 29.5469 11.625 29.0625V26.6406C8.23438 27.6094 6.78125 25.6719 6.29688 24.2188C6.29688 24.2188 6.29688 23.7344 5.32812 22.7656C4.84375 22.2812 2.90625 21.3125 4.84375 21.3125C6.29688 21.3125 7.26562 23.25 7.26562 23.25C8.71875 25.1875 10.6562 24.7031 11.625 24.2188C11.625 23.25 12.5938 22.2812 12.5938 22.2812C8.71875 21.7969 5.8125 20.3438 5.8125 15.0156C5.8125 13.0781 6.29688 11.625 7.26562 10.6562C7.26562 10.6562 6.29688 8.71875 7.26562 6.29688C7.26562 6.29688 9.6875 6.29688 11.625 8.23438C13.0781 7.26562 17.9219 7.26562 19.375 8.23438C21.3125 6.29688 23.7344 6.29688 23.7344 6.29688C24.7031 9.6875 23.7344 10.6562 23.7344 10.6562C24.7031 11.625 25.1875 13.0781 25.1875 15.0156C25.1875 20.3438 21.7969 21.7969 18.4062 22.2812C18.8906 22.7656 19.375 23.7344 19.375 25.1875V29.0625C19.375 29.5469 19.375 30.0312 20.3438 30.0312C21.7969 30.0312 31 25.6719 31 15.5C31 6.78125 24.2188 0 15.5 0Z" fill="black"/>
</svg>
