<svg width="44" height="52" viewBox="0 0 44 52" fill="none" xmlns="http://www.w3.org/2000/svg">
<path d="M21.9734 51.8686L4.06708 47.7026L0.0766602 10.1935H43.9237L39.9291 47.6968L21.9734 51.8686Z" fill="#264DE4"/>
<path d="M36.5092 45.3087L39.9226 13.2603H22V48.6798L36.5092 45.3087Z" fill="#2965F1"/>
<path d="M9.22461 27.1719L9.71652 31.7723H22.0003V27.1719H9.22461Z" fill="#EBEBEB"/>
<path d="M8.23584 17.8608L8.73479 22.4611H22.0001V17.8608H8.23584Z" fill="#EBEBEB"/>
<path d="M21.9999 39.1196L21.9758 39.1249L15.8626 37.7415L15.4717 34.0725H9.96143L10.7304 41.2958L21.9746 43.9116L21.9999 43.9059V39.1196Z" fill="#EBEBEB"/>
<path d="M10.3955 0H17.0436V2.33006H13.1758V4.66012H17.044V6.99004H10.3955V0Z" fill="black"/>
<path d="M18.3737 0H25.022V2.02613H21.154V2.43132H25.022V7.09145H18.3739V4.96377H22.2419V4.55857H18.3735V0H18.3737Z" fill="black"/>
<path d="M26.3516 0H32.9999V2.02613H29.1318V2.43132H32.9999V7.09145H26.3516V4.96377H30.2196V4.55857H26.3517V0H26.3516Z" fill="black"/>
<path d="M34.7406 27.1719L35.7315 17.8608H21.9811V22.4611H29.7158L29.2164 27.1719H21.9811V31.7723H28.7405L28.1031 37.7386L21.981 39.1234V43.9095L33.2341 41.2958L33.3166 40.5185L34.6067 28.4073L34.7406 27.1719Z" fill="white"/>
</svg>
