<svg width="41" height="49" viewBox="0 0 41 49" fill="none" xmlns="http://www.w3.org/2000/svg">
<path d="M10.25 49C15.908 49 20.5 45.3413 20.5 40.8333V32.6667H10.25C4.592 32.6667 0 36.3253 0 40.8333C0 45.3413 4.592 49 10.25 49Z" fill="#0ACF83"/>
<path d="M0 24.5C0 19.992 4.592 16.3333 10.25 16.3333H20.5V32.6667H10.25C4.592 32.6667 0 29.008 0 24.5Z" fill="#A259FF"/>
<path d="M0 8.16667C0 3.65867 4.592 0 10.25 0H20.5V16.3333H10.25C4.592 16.3333 0 12.6747 0 8.16667Z" fill="#F24E1E"/>
<path d="M20.5 0H30.75C36.408 0 41 3.65867 41 8.16667C41 12.6747 36.408 16.3333 30.75 16.3333H20.5V0Z" fill="#FF7262"/>
<path d="M41 24.5C41 29.008 36.408 32.6667 30.75 32.6667C25.092 32.6667 20.5 29.008 20.5 24.5C20.5 19.992 25.092 16.3333 30.75 16.3333C36.408 16.3333 41 19.992 41 24.5Z" fill="#1ABCFE"/>
</svg>
