<svg width="48" height="51" viewBox="0 0 48 51" fill="none" xmlns="http://www.w3.org/2000/svg">
<path d="M47.9166 9.99741L43.5589 46.7796L23.9708 50.8711L4.43668 46.7852L0.0834961 9.99741H47.9166Z" fill="#E44D26"/>
<path d="M24 47.7436L39.8282 44.4374L43.5519 13.0053H24V47.7436Z" fill="#F16529"/>
<path d="M15.5287 22.0292H23.9999V17.5173H8.98438L9.12762 18.7277L10.5995 31.1613H23.9999V26.6494H16.076L15.5287 22.0292Z" fill="#EBEBEB"/>
<path d="M16.8784 33.4173H10.8672L11.7061 40.5016L23.9725 43.0672L24.0001 43.0615V38.3673L23.9738 38.3725L17.3048 37.0157L16.8784 33.4173Z" fill="#EBEBEB"/>
<path d="M4.53369 0H7.57682V2.26533H10.3606V0H13.4039V6.85999H10.3608V4.56288H7.577V6.85999H4.53388V0H4.53369Z" fill="black"/>
<path d="M17.4057 2.27494H14.7271V0H23.1297V2.27494H20.4494V6.85999H17.4062V2.27494H17.4061H17.4057Z" fill="black"/>
<path d="M24.4634 0H27.6364L29.5883 2.41042L31.5383 0H34.7127V6.85999H31.6819V3.45981L29.5883 5.89891H29.5358L27.4409 3.45981V6.85999H24.4634V0Z" fill="black"/>
<path d="M36.2268 0H39.2708V4.59254H43.5503V6.85999H36.2266V0H36.2268Z" fill="black"/>
<path d="M23.9797 31.1613H31.3535L30.6582 37.0129L23.9795 38.3711V43.0651L36.2557 40.5016L36.3457 39.7393L37.7531 27.861L37.8991 26.6494H23.9797V31.1613Z" fill="white"/>
<path d="M23.9795 22.0182V22.0292H38.4438L38.5638 21.0151L38.8368 18.7277L38.9799 17.5173H23.9795V22.0183V22.0182Z" fill="white"/>
</svg>
