<svg width="31" height="31" viewBox="0 0 31 31" fill="none" xmlns="http://www.w3.org/2000/svg">
<path d="M6.07811 0.0079422C2.73888 0.0079422 0.00592041 2.74084 0.00592041 6.08013V24.9232C0.00592041 28.2624 2.73882 30.9944 6.07811 30.9944H24.9212C28.2604 30.9944 30.9924 28.2625 30.9924 24.9232V6.08013C30.9924 2.7409 28.2604 0.0079422 24.9212 0.0079422H6.07811ZM7.60535 5.12133C9.20644 5.12133 10.1926 6.17242 10.2231 7.55406C10.2231 8.90519 9.20638 9.98582 7.57438 9.98582H7.54435C5.97373 9.98582 4.95857 8.90525 4.95857 7.55406C4.95857 6.17245 6.00445 5.12133 7.60532 5.12133H7.60535ZM21.4028 11.5789C24.482 11.5789 26.7903 13.5915 26.7903 17.9165V25.9904H22.1108V18.4578C22.1108 16.5649 21.4335 15.2735 19.74 15.2735C18.4472 15.2735 17.6766 16.1439 17.3383 16.9848C17.2147 17.2856 17.1843 17.7057 17.1843 18.1266V25.9904H12.5047C12.5047 25.9904 12.5662 13.2304 12.5047 11.9092H17.1853V13.9032C17.8071 12.9437 18.9195 11.5789 21.4028 11.5789V11.5789ZM5.2346 11.9102H9.91414V25.9904H5.2346V11.9102Z" fill="black"/>
</svg>
