<svg id="Capa_1" enable-background="new 0 0 512 512" height="512" viewBox="0 0 512 512" width="512" xmlns="http://www.w3.org/2000/svg"><g><path d="m256 0-20.016 168.794 244.123-20.016v-116.885s-96.664-31.893-224.107-31.893z" fill="#cde1e6"/><path d="m256 0c-127.443 0-224.107 31.893-224.107 31.893v116.886l224.107 20.015z" fill="#ebebf0"/><path d="m431.373 148.778v-78.785h-175.373l-20.016 260.396 20.016 181.611h224.107v-363.222z" fill="#2d2d2d"/><path d="m80.627 69.993v78.785h-48.734v363.222h224.107v-442.007z" fill="#3f4a4a"/><g fill="#fff5f5"><path d="m80.627 261.349h31.867v30h-31.867z"/><path d="m144.403 261.349h31.867v30h-31.867z"/><path d="m208.179 261.349h31.867v30h-31.867z"/></g><path d="m271.954 261.349h31.867v30h-31.867z" fill="#ebebf0"/><path d="m335.73 261.349h31.867v30h-31.867z" fill="#ebebf0"/><path d="m399.506 261.349h31.867v30h-31.867z" fill="#ffb655"/><path d="m80.627 325.135h31.867v30h-31.867z" fill="#fff5f5"/><path d="m144.589 325.135h31.867v30h-31.867z" fill="#fff5f5"/><path d="m208.552 325.135h31.867v30h-31.867z" fill="#fff5f5"/><path d="m272.514 325.135h31.867v30h-31.867z" fill="#ebebf0"/><path d="m336.477 325.135h31.867v30h-31.867z" fill="#ebebf0"/><path d="m80.627 388.92h31.867v30h-31.867z" fill="#fff5f5"/><path d="m144.589 388.92h31.867v30h-31.867z" fill="#fff5f5"/><path d="m208.552 388.92h31.867v30h-31.867z" fill="#fff5f5"/><path d="m272.514 388.92h31.867v30h-31.867z" fill="#ebebf0"/><path d="m336.477 388.92h31.867v30h-31.867z" fill="#ebebf0"/><path d="m401.373 324.201h30v95.652h-30z" fill="#ff8859"/><path d="m401.373 99.993h-145.373l-20.016 48.785 20.016 48.785h145.373z" fill="#00cc76"/><path d="m110.627 99.993h145.373v97.571h-145.373z" fill="#a5e887"/></g></svg>