<svg width="31" height="31" viewBox="0 0 31 31" fill="none" xmlns="http://www.w3.org/2000/svg">
<path d="M18.7108 15.8365C18.7108 14.1611 17.3415 12.7979 15.6585 12.7979C13.9757 12.7979 12.6064 14.1611 12.6064 15.8365C12.6064 17.5123 13.9757 18.8753 15.6585 18.8753C17.3415 18.8753 18.7108 17.5123 18.7108 15.8365ZM23.2455 0.0186615H7.75443C3.48644 0.0186615 0.0141602 3.47584 0.0141602 7.72517V9.87241H11.404C12.6058 9.02004 14.0736 8.51651 15.6585 8.51651C17.2433 8.51651 18.7114 9.02004 19.9133 9.87241H30.9858V7.72517C30.9858 3.47581 27.5135 0.0186615 23.2455 0.0186615ZM26.3802 7.34815C26.3802 7.81907 25.9934 8.20443 25.5202 8.20443H22.8629C22.3898 8.20443 22.0029 7.81907 22.0029 7.34815V4.70223C22.0029 4.23134 22.3898 3.84595 22.8629 3.84595H25.5202C25.9933 3.84595 26.3802 4.23128 26.3802 4.70223V7.34815ZM23.0109 15.8365C23.0109 19.8731 19.7125 23.1566 15.6585 23.1566C11.6043 23.1566 8.3062 19.8731 8.3062 15.8365C8.3062 14.7252 8.5576 13.6713 9.00469 12.7266H0.0141602V23.2748C0.0141602 27.5244 3.48644 30.9813 7.75443 30.9813H23.2456C27.5135 30.9813 30.9858 27.5244 30.9858 23.2748V12.7266H22.3124C22.7595 13.6713 23.0109 14.7252 23.0109 15.8365Z" fill="black"/>
</svg>
