<svg width="21" height="20" viewBox="0 0 21 20" fill="none" xmlns="http://www.w3.org/2000/svg">
<path d="M3.69425 16.4817C4.10014 16.8688 4.58234 17.1757 5.11316 17.3848C5.64398 17.5939 6.21295 17.701 6.78737 17.7C7.36192 17.701 7.93101 17.5938 8.46197 17.3848C8.99293 17.1757 9.47529 16.8688 9.88137 16.4817L12.3559 14.1242L11.1186 12.9458L8.64412 15.3033C8.15103 15.7709 7.48358 16.0333 6.78781 16.0333C6.09203 16.0333 5.42459 15.7709 4.9315 15.3033C4.44019 14.834 4.1643 14.1982 4.1643 13.5354C4.1643 12.8726 4.44019 12.2369 4.9315 11.7675L7.40687 9.41084L6.16962 8.23251L3.69425 10.5892C2.87508 11.3712 2.41504 12.4308 2.41504 13.5354C2.41504 14.6401 2.87508 15.6996 3.69425 16.4817ZM17.3057 9.41084C18.1245 8.62858 18.5842 7.56911 18.5842 6.46459C18.5842 5.36008 18.1245 4.30061 17.3057 3.51834C16.4846 2.73818 15.3721 2.30005 14.2122 2.30005C13.0523 2.30005 11.9398 2.73818 11.1186 3.51834L8.64412 5.87584L9.88137 7.05418L12.3559 4.69668C12.849 4.22917 13.5164 3.9667 14.2122 3.9667C14.908 3.9667 15.5754 4.22917 16.0685 4.69668C16.5598 5.16607 16.8357 5.80182 16.8357 6.46459C16.8357 7.12737 16.5598 7.76312 16.0685 8.23251L13.5931 10.5892L14.8304 11.7675L17.3057 9.41084Z" fill="#BFC0C0"/>
<path d="M7.406 14.125L6.16788 12.9467L13.594 5.875L14.8313 7.05417L7.406 14.125Z" fill="#BFC0C0"/>
</svg>
