<svg width="21" height="21" viewBox="0 0 21 21" fill="none" xmlns="http://www.w3.org/2000/svg">
<path d="M6.45312 14.6834L7.54687 13.3166L4.02587 10.5L7.54687 7.68337L6.45312 6.31662L2.07812 9.81662C1.97561 9.89859 1.89286 10.0026 1.83599 10.1209C1.77912 10.2392 1.74959 10.3687 1.74959 10.5C1.74959 10.6312 1.77912 10.7608 1.83599 10.8791C1.89286 10.9974 1.97561 11.1014 2.07812 11.1834L6.45312 14.6834ZM14.5469 6.31662L13.4531 7.68337L16.9741 10.5L13.4531 13.3166L14.5469 14.6834L18.9219 11.1834C19.0244 11.1014 19.1071 10.9974 19.164 10.8791C19.2209 10.7608 19.2504 10.6312 19.2504 10.5C19.2504 10.3687 19.2209 10.2392 19.164 10.1209C19.1071 10.0026 19.0244 9.89859 18.9219 9.81662L14.5469 6.31662Z" fill="#BFC0C0"/>
<path d="M13.104 2.81398L9.604 18.564L7.89513 18.1842L11.3951 2.43423L13.104 2.81398Z" fill="#BFC0C0"/>
</svg>
