<svg width="31" height="31" viewBox="0 0 31 31" fill="none" xmlns="http://www.w3.org/2000/svg">
<path d="M30.8664 14.4835C30.8664 18.422 29.3965 21.7888 26.4569 24.5839C23.5172 27.379 19.954 28.7766 15.7672 28.7766C13.273 28.7766 10.8455 28.1837 8.4849 26.9979L0.133606 29.4753L2.80602 21.8524C1.38073 19.5655 0.668089 17.1092 0.668089 14.4835C0.668089 10.545 2.13792 7.18878 5.07757 4.41487C8.01723 1.64097 11.5804 0.254013 15.7672 0.254013C19.954 0.254013 23.5172 1.64097 26.4569 4.41487C29.3965 7.18878 30.8664 10.545 30.8664 14.4835ZM15.7672 2.47737C12.2485 2.47737 9.25322 3.65258 6.78123 6.00299C4.30925 8.3534 3.07326 11.1802 3.07326 14.4835C3.07326 17.1092 3.87498 19.4596 5.47843 21.5348L3.87498 25.9815L8.81895 24.5204C11.0014 25.8332 13.3175 26.4897 15.7672 26.4897C19.2859 26.4897 22.2812 25.3145 24.7532 22.9641C27.2252 20.6136 28.4612 17.7868 28.4612 14.4835C28.4612 11.1802 27.2252 8.3534 24.7532 6.00299C22.2812 3.65258 19.2859 2.47737 15.7672 2.47737ZM23.3836 17.7868C23.3391 17.7444 23.1164 17.5962 22.7155 17.3421C22.5819 17.2998 22.1587 17.1198 21.4461 16.8022C20.7335 16.4845 20.3103 16.3046 20.1767 16.2622C19.7758 16.1352 19.4863 16.1775 19.3082 16.3893C19.2636 16.5163 19.1634 16.6751 19.0075 16.8657C18.8516 17.0563 18.6846 17.2468 18.5064 17.4374C18.3283 17.628 18.2169 17.7444 18.1724 17.7868C17.9942 18.0409 17.727 18.0621 17.3707 17.8503C15.8563 17.1304 14.8542 16.5587 14.3642 16.1352C14.0524 15.8387 13.7518 15.5211 13.4623 15.1823C13.1728 14.8435 12.9055 14.5259 12.6605 14.2294C12.4156 13.933 12.2931 13.7636 12.2931 13.7212C12.1595 13.4248 12.2263 13.1919 12.4935 13.0225C12.6717 12.7684 12.8498 12.5566 13.028 12.3872L13.4289 11.8155C13.5179 11.6037 13.4957 11.392 13.3621 11.1802C13.1839 10.6297 12.8053 9.76153 12.2263 8.57573C12.0927 8.19459 11.8254 8.00401 11.4246 8.00401H10.6896C10.2888 8.00401 9.95473 8.15224 9.68748 8.44869C8.84122 9.25333 8.41809 10.2062 8.41809 11.3073C8.41809 12.3237 8.90803 13.5307 9.88792 14.9282L10.0215 15.1188C10.1106 15.2458 10.2108 15.3835 10.3222 15.5317C10.4335 15.6799 10.5894 15.8705 10.7899 16.1034C10.9903 16.3363 11.1907 16.5587 11.3911 16.7704C11.5916 16.9822 11.8254 17.2257 12.0927 17.5009C12.3599 17.7762 12.6494 18.0409 12.9612 18.295C13.273 18.5491 13.5959 18.7926 13.9299 19.0255C14.264 19.2585 14.6314 19.4702 15.0323 19.6608C15.4332 19.8513 15.834 20.0313 16.2349 20.2007C16.9475 20.4548 17.56 20.6666 18.0722 20.836C18.5844 21.0054 18.9853 21.1113 19.2748 21.1536C19.5643 21.196 19.7758 21.2171 19.9095 21.2171C20.0431 21.2171 20.199 21.196 20.3771 21.1536C20.5553 21.1113 20.6667 21.0901 20.7112 21.0901C21.1121 21.0477 21.5909 20.8572 22.1476 20.5184C22.7044 20.1796 23.0496 19.8196 23.1832 19.4384C23.5395 18.5491 23.6063 17.9985 23.3836 17.7868Z" fill="black"/>
</svg>
